<svg xmlns="http://www.w3.org/2000/svg" x="0px" y="0px" viewBox="11.863629341125488 6.441810607910156 24.27273941040039 35.116371154785156" enable-background="new 0 0 48 48">
<g>
	<g>
	</g>
	
		<path fill="#FFFFFF" stroke="#000000" stroke-width="1" stroke-linecap="round" stroke-linejoin="round" stroke-miterlimit="10" d="   M31.69173,30.11402H16.30827c-1.14046,0-2.06499-0.92453-2.06499-2.06499V16.69852c0-5.38848,4.36823-9.75671,9.75671-9.75671   h0.00002c5.38848,0,9.7567,4.36823,9.7567,9.75671v11.35051C33.75671,29.18949,32.83219,30.11402,31.69173,30.11402z"/>
</g>
<g>
	<g>
		
			<path fill="#FFFFFF" stroke="#000000" stroke-width="1" stroke-linecap="round" stroke-linejoin="round" stroke-miterlimit="10" d="    M25.34591,27.38455h-2.69183c-5.68326,0-10.29045,4.60719-10.29045,10.29045v0.00002c0,1.86847,1.5147,3.38316,3.38317,3.38316    h16.5064c1.86847,0,3.38317-1.51469,3.38317-3.38316V37.675C35.63636,31.99174,31.02917,27.38455,25.34591,27.38455z"/>
		
			<polyline fill="none" stroke="#000000" stroke-width="1" stroke-linecap="round" stroke-linejoin="round" stroke-miterlimit="10" points="    16.97744,29.09108 24,33.77279 31.02258,29.09106   "/>
		
			<line fill="none" stroke="#000000" stroke-width="1" stroke-linecap="round" stroke-linejoin="round" stroke-miterlimit="10" x1="24" y1="33.77279" x2="24" y2="41.05818"/>
	</g>
</g>
<g>
	
		<path fill="#FFFFFF" stroke="#000000" stroke-width="1" stroke-linecap="round" stroke-linejoin="round" stroke-miterlimit="10" d="   M30.07357,17.71078c0,2.85994-1.93307,5.32353-4.73201,5.92112c-3.81732,0.81104-7.19557-1.96352-7.39071-5.59181h-0.00611   v-1.76232c1.82928-0.64334,3.31985-1.98971,4.15158-3.71433c0.13691-0.28388,0.41198-0.47496,0.72715-0.47496l0,0   c0.31481,0,0.5895,0.19077,0.72629,0.47431c1.16676,2.41846,3.62774,4.09525,6.48722,4.12963v0.34759   C30.06136,17.25953,30.07357,17.47909,30.07357,17.71078z"/>
</g>
</svg>